<svg xmlns="http://www.w3.org/2000/svg" viewBox="0 0 71 71" fill="#3c3c3b"><path d="M40.6 57.88h-9.13a2.75 2.75 0 0 1-2-.9c-3.59-6.28-6.77-12.73-8.08-20a15.91 15.91 0 0 1 14.89-18.75c5.55-.33 10.93-.08 15.58 3.59 6.29 4.65 7.1 11.09 5.31 18C55.7 45.48 53.82 51 52 56.57a2.33 2.33 0 0 1-1.88 1.15c-3.12.16-6.33.16-9.52.16zM51.62 63a34.85 34.85 0 0 1-.08 5.79 3.07 3.07 0 0 1-2.12 1.88c-5.72.16-11.43.08-17.06.08a2.27 2.27 0 0 1-2.44-2.28c-.17-1.72 0-3.51 0-5.47zM18.17 38.13l8.48 20A10.29 10.29 0 0 1 15 51.27a49.81 49.81 0 0 1-1.64-5.06c-1.23-4.16.81-7.42 4.81-8.08z"/></svg>