<svg xmlns="http://www.w3.org/2000/svg" viewBox="0 0 71 71" fill="#3c3c3b"><path d="M62.29 5.94c-.31-.2-.61 0-.91.2-.5.4-1.61 4-2 5l-1.71 5.33c-.6 1.5-1.41 1.6-2.21 2.11l-7.64 4A2.66 2.66 0 0 0 46.3 26l3.52 18 1.51 8.14-1.31-.2-2.21-.4-7.94-28.25c-.1-.6-1.11-3.62-.71-3.92a55.44 55.44 0 0 1 4.43-4c1.3-1 1.2-1.41 1.5-3.42l.81-6.33c0-.2.8-4.43.2-4.73-.3-.1-.4 0-.7.3a29.08 29.08 0 0 0-.91 5.13l-.7 5.43c-.2 1.61-.91 1.71-1.51 2.31l-5.53 4.73c-1 .8-1.21 1.91-.8 3.42l5 17.49c.4 1.3 1.61 6.23 2.82 11l-18.7-3.42c-.61-.1-5-.1-6.74.9-1.51.91-1.81 1-3 1.81-3.91 2.7-6.73 6.42-6.83 11.44 0 2.11 2.81 3.32 4.12 3.22h40.32c-.91 0 5.32.3 5-.6L51 27.15c-.1-.6-.81-3.72-.31-4 2-1.21 4.13-2.41 6.24-3.42 1.81-.8 1.81-1.2 2.41-3.11.7-2.42 1.31-4 1.91-6.14.13-.12 1.84-4.14 1.04-4.54zM54 62.74l-27.3-4.32a5.2 5.2 0 0 1-9.65-2.72 5.23 5.23 0 0 1 10.45 0c0 .41-.1.81-.1 1.21l13.77 2.21.41-2.91 3.72.6 4.22.7 1.81.3-.4 2.92 3.41.5zM57.76 69a2.06 2.06 0 0 1-2 1.91h-7a1.93 1.93 0 0 1-1.81-1A1.52 1.52 0 0 1 47 68a2 2 0 0 1 1.61-.81h7A1.89 1.89 0 0 1 57.76 69zm-35.49 0a2.06 2.06 0 0 1-2 1.91h-7.15a1.93 1.93 0 0 1-1.81-1 1.5 1.5 0 0 1 .11-1.91 2 2 0 0 1 1.6-.81h7A1.93 1.93 0 0 1 22.27 69zm37.6-63.46l-3.72 9.25a1.85 1.85 0 0 1-2 1.3 2.45 2.45 0 0 1-2.21-1.5 2.75 2.75 0 0 1-.2-2.32L55.45 3a2.17 2.17 0 0 1 3.12-1.1 2.87 2.87 0 0 1 1.3 3.64z"/></svg>