<svg xmlns="http://www.w3.org/2000/svg" viewBox="0 0 71 71" fill="#3c3c3b"><rect x="6.59" y="43.31" width="4.73" height="23.77" rx=".89"/><rect x=".5" y="47.77" width="4.73" height="14.86" rx=".89"/><rect x="65.77" y="47.77" width="4.73" height="14.86" rx=".89"/><rect x="59.95" y="43.31" width="4.73" height="23.77" rx=".89"/><path d="M57.7 39.71h-3a.89.89 0 0 0-.89.89v11.69H17.34V40.6a.89.89 0 0 0-.89-.89H13.5a.89.89 0 0 0-.89.89v29.2a.89.89 0 0 0 .89.89h2.95a.89.89 0 0 0 .89-.89V58.11h36.52V69.8a.89.89 0 0 0 .89.89h3a.89.89 0 0 0 .89-.89V40.6a.89.89 0 0 0-.94-.89z"/></svg>