<svg xmlns="http://www.w3.org/2000/svg" viewBox="0 0 71 71" fill="#3c3c3b"><path d="M63.79 13l-7.2-8.1a.86.86 0 0 0-.6-.3H39a.9.9 0 0 1-.9-.9V1.93a.9.9 0 0 0-.9-.9h-3.7a.9.9 0 0 0-.9.9v1.8a.9.9 0 0 1-.9.9h-17a.71.71 0 0 0-.6.3l-6.9 8a1.22 1.22 0 0 0 .1 1.6 1.22 1.22 0 0 0 1.6-.1l.6-.8 5.5-6.3a.86.86 0 0 1 .6-.3h8.5v4.8a.9.9 0 0 1-.9.9h-4.9a.71.71 0 0 0-.6.3l-.6.7-4 4.8-.1.1a3 3 0 0 0-2.7 3v7.5a3 3 0 0 0 3 3h1.3a3 3 0 0 0 3-3v-7.5a2.85 2.85 0 0 0-1.2-2.4c-.2-.1-.4-.3-.6-.4l3.1-3.6a.91.91 0 0 1 .7-.3h3.8a.9.9 0 0 1 .9.9v23.3a.9.9 0 0 1-.9.9h-.2a.9.9 0 0 0-.9.9V45a.9.9 0 0 0 .9.9H27a.9.9 0 0 0 .9-.9v-4.9h-1.2V15.93a.9.9 0 0 1 .9-.9h16a.9.9 0 0 1 .9.9V40h-1.2v4.9a.9.9 0 0 0 .9.9h3.7a.9.9 0 0 0 .9-.9v-4.1a.9.9 0 0 0-.9-.9.9.9 0 0 1-.9-.9V15.93a.9.9 0 0 1 .9-.9h3.4a.71.71 0 0 1 .6.3l3.2 3.6a2.09 2.09 0 0 0-.6.4 3.17 3.17 0 0 0-1.1 2.3v7.5a3 3 0 0 0 3 3h1.3a3 3 0 0 0 3-3v-7.5a3 3 0 0 0-2.8-3l-4.3-4.8-.7-.8a.86.86 0 0 0-.6-.3H48a.9.9 0 0 1-.9-.9v-4a.9.9 0 0 1 .9-.9h7.2a.71.71 0 0 1 .6.3l5.8 6.6.6.8a1.27 1.27 0 0 0 .9.4 1.14 1.14 0 0 0 .8-.3 1.73 1.73 0 0 0-.11-1.73zm-31-1.2a.9.9 0 0 1-.9.9h-4.3a.9.9 0 0 1-.9-.9v-4a.9.9 0 0 1 .9-.9h4.3a.9.9 0 0 1 .9.9zM44.49 7v4.8a.9.9 0 0 1-.9.9H39a.9.9 0 0 1-.9-.9v-4a.9.9 0 0 1 .9-.9h5.5zm7.7 61h-15v-3H43a1.62 1.62 0 0 0 1.6-1.4v-1.3A1.62 1.62 0 0 0 43 61h-5.82v-7.3h10.61a1.83 1.83 0 0 0 1.8-1.3.75.75 0 0 0 .1-.5 3.09 3.09 0 0 0-.2-.8 1.63 1.63 0 0 0-1.7-1.2H37.18V49v-.07h2.52a2.51 2.51 0 0 0 2.6-2 .75.75 0 0 0 .1-.5v-23.1a2.61 2.61 0 0 0-2.6-2.7h-2.3a.9.9 0 0 1-.9-.9v-.8a.9.9 0 0 0-.9-.9h-.6a.9.9 0 0 0-.9.9v.9a.9.9 0 0 1-.9.9H31a2.58 2.58 0 0 0-2.6 2.6v23.1c0 .2.1.3.1.5a2.61 2.61 0 0 0 2.6 2h2.74V49v.93H23.19a2.14 2.14 0 0 0-1.7 1.2 2.35 2.35 0 0 0-.2.8.9.9 0 0 0 .1.5 1.75 1.75 0 0 0 1.8 1.3h10.63V61H28a1.85 1.85 0 0 0-1.5 1.2c-.1.1-.1.2-.1.4v.9a1.54 1.54 0 0 0 1.6 1.4h5.83v3H18.64a1.42 1.42 0 1 0 0 2.84h33.55a1.42 1.42 0 0 0 0-2.84z"/></svg>