<svg xmlns="http://www.w3.org/2000/svg" viewBox="0 0 71 71" fill="#3c3c3b"><path d="M53.5 16.49l2.7-3.6a.93.93 0 0 1 1.3 0 1.06 1.06 0 0 1 .2 1.3c-.7 1.1-1.5 2-2.2 3l-.2.2c-.1.1-.2.2-.2.3l-3.3 4.5a.94.94 0 0 0-.1.9l6.7 14.5 7.7 16.6a1.21 1.21 0 0 0 .5.5 6.45 6.45 0 0 1 3.7 7A6.28 6.28 0 0 1 64.6 67l-4.8.1h-1.3c0-.1 0-.2-.1-.2a4.58 4.58 0 0 0-4.8-3.6h-8.4a4.8 4.8 0 0 0-4.6 3.5c0 .1-.1.2-.1.3h-9.7a5.93 5.93 0 0 0-1.8-2.7 5.22 5.22 0 0 0-3.1-1.2h-9a3.84 3.84 0 0 0-3.4 1.7c-.4.6-.7 1.4-1.2 2.1h-5a20.35 20.35 0 0 1-4.7-.2c-1.4-.7-1.5-2.9-1.8-3.6a19.48 19.48 0 0 1-.2-2.5A6.47 6.47 0 0 1 7.1 54h48.2l-6-28.6a7.84 7.84 0 0 1-1.4.2H37.3a.75.75 0 0 0-.7.4l-3.2 6.7c-.3.6-.9.9-1.4.5a1.2 1.2 0 0 1-.4-1.5l3.6-7.5a1.42 1.42 0 0 1 1.4-.9h10.9a.6.6 0 0 0 .6-.3l1.9-2.6 1.8-2.5M7.6 64.79a4.3 4.3 0 0 0 0-8.6 4.27 4.27 0 0 0-4.3 4.3 4.4 4.4 0 0 0 4.3 4.3zm60.2-4.1a4.33 4.33 0 0 0-4.3-4.3 4.27 4.27 0 0 0-4.3 4.3A4.33 4.33 0 0 0 63.5 65a4.54 4.54 0 0 0 4.3-4.31zm-46.1 9.9h4.4a2.3 2.3 0 0 0 2.2-1.4 2.61 2.61 0 0 0-.1-2.7 2.54 2.54 0 0 0-2-1.2h-9A2.67 2.67 0 0 0 14.6 68a2.73 2.73 0 0 0 2.6 2.7l4.5-.1z"/><path d="M49.9 70.59h4.4A2.64 2.64 0 0 0 56.8 67a2.37 2.37 0 0 0-2.3-1.6h-8.9a2.67 2.67 0 0 0-2.6 2.7 2.61 2.61 0 0 0 2.7 2.6l4.2-.1zm1.6-62.1a2 2 0 0 0-1.9 1c-1.9 2.7-3.9 5.3-5.9 8.1a2.31 2.31 0 0 0 .5 3.4 2.5 2.5 0 0 0 3.4-.5c1.9-2.7 3.9-5.3 5.9-8.1a2.69 2.69 0 0 0 .2-2.6 2.41 2.41 0 0 0-2.2-1.3z"/></svg>