<svg xmlns="http://www.w3.org/2000/svg" viewBox="0 0 71 71" fill="#3c3c3b"><path d="M67.56 54.35a.31.31 0 0 0 .2.1c-.1-.1-.1-.1-.2-.1zm-.8 13.8a2.67 2.67 0 0 1-2.7 2.6h-9.6a2.85 2.85 0 0 1-2.5-1.4 2.42 2.42 0 0 1 .1-2.7 2.71 2.71 0 0 1 2.3-1.1h9.8a2.65 2.65 0 0 1 2.6 2.6zm-49.2 0a2.69 2.69 0 0 1-2.8 2.6h-9.7a2.85 2.85 0 0 1-2.5-1.4 2.42 2.42 0 0 1 .1-2.7 3 3 0 0 1 2.4-1.1h9.8a2.67 2.67 0 0 1 2.7 2.6zm36.9-48.3a1.37 1.37 0 0 1-.8 1 1.44 1.44 0 0 1-1.4-.3 2.4 2.4 0 0 1-.9-1.7l-.4-9a1.87 1.87 0 0 1 2.1-2c1.3.1.9 1.8 1 3l.4 9zm13.3 34.5a.31.31 0 0 1-.2-.1c.1.1.1.1.2.1z"/><path d="M60.36 41.85a2.09 2.09 0 0 1-.6-.4l-5.2-8c-.3-.5-2.2-2.9-1.9-3.4a56.1 56.1 0 0 1 4.1-5.5c1.3-1.4 1.1-1.8.8-3.7l-.7-6.2c0-.2-.2-4.5-1-4.5-.4 0-.5.2-.7.6s.2 4.2.3 5.2l.7 5.4a3.26 3.26 0 0 1-1.1 2.7c-1.6 2.3-3.4 4.4-5.1 6.6a2.61 2.61 0 0 0 0 3.5l3.1 4.3a17.29 17.29 0 0 0-6.1-.4l-18.4 3.3c-.8-2.4-.5-4 1.9-5.5a3.91 3.91 0 0 0 1.6-3.5 4.23 4.23 0 0 0-3.3-2c-4.4-.2-8.7-.1-13.1-.1-1.4 0-9.7-24.6-11-25a1.67 1.67 0 0 0-2.1.9C2 7.15 7.86 32.45 8 34v2.9c0 2.3 1 3.5 3.4 3.5 2.9 0 5.9-.1 8.8 0 .8 0 2.1.5 2.3 1.1l.3.9-10.3 1.8c-.5.1-.9.1-1.9.3-8.2 2.5-6-.2-9.3 16.8-.4 1.3 8.2.9 7 .9h55.8c1.8.1 5.8-1.6 5.7-4.5-.14-6.85-3.94-11.95-9.44-15.85zm-8.8 16.6a7.2 7.2 0 1 1 7.2-7.2 7.17 7.17 0 0 1-7.2 7.2zm16-4.1c.1 0 .1.1.2.1a.31.31 0 0 1-.2-.1z"/></svg>