<svg xmlns="http://www.w3.org/2000/svg" viewBox="0 0 71 71" fill="#3c3c3b"><path d="M15.2 55.77a7.13 7.13 0 0 1-7.1 7.1 7.77 7.77 0 0 1-1.6-.2 7.07 7.07 0 0 1-5.5-6.9 7.23 7.23 0 0 1 7.2-7.2A7 7 0 0 1 13.5 51a7.55 7.55 0 0 1 1.7 4.77zm54.2 13.6l-1.7-1.2A13.6 13.6 0 0 1 66 67l-1.7-1.2-1.7-1.2-32.7-22L33.8 31a3 3 0 0 0-1-3.2l-2.3-1.7a1.85 1.85 0 0 0-2.7.5L14.4 49.27a9.15 9.15 0 0 1 2.7 6.5 9 9 0 0 1-9 9 8.42 8.42 0 0 1-2.7-.4l-2.5 4.2c-.6 1-.1 1.7 1 1.7h14.5a3.08 3.08 0 0 0 2.7-1.9l7.5-22.1 31.3 21.2-1.4 1.4-.1.1c-.8.8-.5 1.4.6 1.4h10c1.2.2 1.3-.37.4-1zM29 29.87a1.2 1.2 0 0 1 2.4 0 1.22 1.22 0 0 1-1.2 1.2 1.38 1.38 0 0 1-1.2-1.2z"/></svg>