<svg xmlns="http://www.w3.org/2000/svg" viewBox="0 0 71 71" fill="#3c3c3b"><path d="M19.12 34.63l22.71 22.73h.08c6.88-.72 10-3.88 12.68-7.3 10.29-14.82-1.83-26.36-1.83-26.36s-11.53-12.14-26.34-1.84c-3.41 2.73-6.57 5.81-7.3 12.68zm-1.43 17.88l-8.22 8.22a2 2 0 0 0 .31 2.87l1.55 1.55 1.55 1.55a2 2 0 0 0 2.87.31L24 58.78zM19.24 38l.24 2c.47 3 1.27 4.87 1.13 7.54a6.77 6.77 0 0 1-1.05 3 2.78 2.78 0 0 1-.26.34l6.3 6.31a2.12 2.12 0 0 1 .34-.27 6.9 6.9 0 0 1 3-1c2.67-.14 4.5.66 7.53 1.13l2 .24z"/><ellipse cx="55.21" cy="64.04" rx="6.79" ry="6.8"/></svg>