<svg xmlns="http://www.w3.org/2000/svg" viewBox="0 0 71 71" fill="#3c3c3b"><path d="M4.72 57.65L.51 55.33v5.2a4.45 4.45 0 0 0 .33 2.19 3.63 3.63 0 0 0 2 1.43 1.74 1.74 0 0 0 2.06-1.51 31.94 31.94 0 0 0 .2-4.5c0-.14-.21-.39-.38-.49zm61.57-.01c-.17.1-.39.32-.39.49a31.93 31.93 0 0 0 .21 4.49 1.74 1.74 0 0 0 2 1.51 3.62 3.62 0 0 0 2-1.43 4.45 4.45 0 0 0 .32-2.19v-5.19zM35.5 62.08c19.33 0 35-5.08 35-11.35a3.57 3.57 0 0 0-.06-.65V18.87c0-7.74-17.89-12.37-35.18-12.37C15.44 6.5.5 11.82.5 18.87v31.34h0a4.55 4.55 0 0 0 0 .52c0 6.27 15.67 11.35 35 11.35zm-20-20.65C9.56 42.77 5 44.68 2.53 46.92V23.2c2.45 2.47 7 4.54 12.93 5.95zm0 12.48c-4.46-1.2-7.19-2.8-7.19-4.55S11 46 15.47 44.8zm37.69-13a95.27 95.27 0 0 0-16.6-1.55v-8.14a92 92 0 0 0 16.6-1.69zM55.2 54v-9.28c4.65 1.2 7.52 2.84 7.52 4.64S59.85 52.79 55.2 54zm13.2-7.14c-2.52-2.25-7.17-4.17-13.17-5.5V29.08c5.85-1.38 10.62-3.39 13.17-5.93zm-.1-28c0 3-4.86 6.15-13.07 8.16V10.65c8.21 2.02 13.07 5.15 13.07 8.17zM36.55 8.5a87.86 87.86 0 0 1 16.65 1.69v17.25a87.86 87.86 0 0 1-16.65 1.69zm-1 34.13a88 88 0 0 1 17.66 1.61v10.23a88 88 0 0 1-17.71 1.61 87.45 87.45 0 0 1-18-1.68V44.31a87.45 87.45 0 0 1 18-1.68zm-1-3.24A95.48 95.48 0 0 0 17.5 41V29.6a89.77 89.77 0 0 0 17 1.62v4.3h0zm0-10.25a86.83 86.83 0 0 1-17-1.67V10.16a86.83 86.83 0 0 1 17-1.67zM15.46 10.62V27c-8.18-2-13-5.17-13-8.19s4.82-6.17 13-8.19zm17.85 57.95a2.16 2.16 0 0 0 2.16 2.15h1.18a2.16 2.16 0 0 0 2.16-2.15v-4.94h-5.5z"/></svg>